<?xml version="1.0" encoding="UTF-8" standalone="no"?>
<!-- Created with Inkscape (http://www.inkscape.org/) -->
<svg
   xmlns:dc="http://purl.org/dc/elements/1.1/"
   xmlns:cc="http://creativecommons.org/ns#"
   xmlns:rdf="http://www.w3.org/1999/02/22-rdf-syntax-ns#"
   xmlns:svg="http://www.w3.org/2000/svg"
   xmlns="http://www.w3.org/2000/svg"
   xmlns:xlink="http://www.w3.org/1999/xlink"
   xmlns:sodipodi="http://sodipodi.sourceforge.net/DTD/sodipodi-0.dtd"
   xmlns:inkscape="http://www.inkscape.org/namespaces/inkscape"
   width="128"
   height="128"
   id="svg3221"
   sodipodi:version="0.32"
   inkscape:version="0.46"
   version="1.0"
   sodipodi:docname="Products.svg"
   inkscape:output_extension="org.inkscape.output.svg.inkscape"
   inkscape:export-filename="C:\Documents and Settings\tehiteoh\Desktop\Products.png"
   inkscape:export-xdpi="90"
   inkscape:export-ydpi="90">
  <defs
     id="defs3223">
    <linearGradient
       inkscape:collect="always"
       id="linearGradient3746">
      <stop
         style="stop-color:#ffffff;stop-opacity:1;"
         offset="0"
         id="stop3748" />
      <stop
         style="stop-color:#ffffff;stop-opacity:0;"
         offset="1"
         id="stop3750" />
    </linearGradient>
    <inkscape:perspective
       sodipodi:type="inkscape:persp3d"
       inkscape:vp_x="0 : 526.18109 : 1"
       inkscape:vp_y="0 : 1000 : 0"
       inkscape:vp_z="744.09448 : 526.18109 : 1"
       inkscape:persp3d-origin="372.04724 : 350.78739 : 1"
       id="perspective3229" />
    <linearGradient
       inkscape:collect="always"
       xlink:href="#linearGradient3746"
       id="linearGradient3752"
       x1="8"
       y1="20"
       x2="80"
       y2="88"
       gradientUnits="userSpaceOnUse" />
    <filter
       inkscape:collect="always"
       id="filter3764">
      <feGaussianBlur
         inkscape:collect="always"
         stdDeviation="2.0678283"
         id="feGaussianBlur3766" />
    </filter>
    <filter
       inkscape:collect="always"
       id="filter3252">
      <feGaussianBlur
         inkscape:collect="always"
         stdDeviation="0.77581507"
         id="feGaussianBlur3254" />
    </filter>
  </defs>
  <sodipodi:namedview
     id="base"
     pagecolor="#ffffff"
     bordercolor="#666666"
     borderopacity="1.0"
     gridtolerance="10000"
     guidetolerance="10"
     objecttolerance="10"
     inkscape:pageopacity="0.0"
     inkscape:pageshadow="2"
     inkscape:zoom="5.4765625"
     inkscape:cx="46.53372"
     inkscape:cy="63.724574"
     inkscape:document-units="px"
     inkscape:current-layer="layer1"
     showgrid="true"
     width="128px"
     inkscape:window-width="1280"
     inkscape:window-height="952"
     inkscape:window-x="0"
     inkscape:window-y="45">
    <inkscape:grid
       type="xygrid"
       id="grid3231"
       visible="true"
       enabled="true"
       empspacing="4"
       empcolor="#0000ff"
       empopacity="0.25098039"
       spacingx="4px"
       spacingy="4px" />
  </sodipodi:namedview>
  <metadata
     id="metadata3226">
    <rdf:RDF>
      <cc:Work
         rdf:about="">
        <dc:format>image/svg+xml</dc:format>
        <dc:type
           rdf:resource="http://purl.org/dc/dcmitype/StillImage" />
      </cc:Work>
    </rdf:RDF>
  </metadata>
  <g
     inkscape:label="Layer 1"
     inkscape:groupmode="layer"
     id="layer1">
    <rect
       y="7.8532271"
       x="8.1068134"
       height="112.31943"
       width="112.00381"
       id="rect3758"
       style="opacity:1;fill:#000000;fill-opacity:1;fill-rule:evenodd;stroke:#000000;stroke-width:6;stroke-linecap:round;stroke-linejoin:round;stroke-miterlimit:4;stroke-dasharray:none;stroke-opacity:1;filter:url(#filter3764)" />
    <rect
       style="opacity:1;fill:#ff1919;fill-opacity:1;fill-rule:evenodd;stroke:#cccccc;stroke-width:6;stroke-linecap:round;stroke-linejoin:round;stroke-miterlimit:4;stroke-dasharray:none;stroke-opacity:1"
       id="rect3233"
       width="112.00381"
       height="112.31943"
       x="8.1068134"
       y="7.8532276" />
    <rect
       y="13.953337"
       x="14.189779"
       height="100.11921"
       width="99.837875"
       id="rect3744"
       style="opacity:1;fill:url(#linearGradient3752);fill-opacity:1;fill-rule:evenodd;stroke:none;stroke-width:6;stroke-linecap:round;stroke-linejoin:round;stroke-miterlimit:4;stroke-dasharray:none;stroke-opacity:1" />
    <path
       sodipodi:type="arc"
       style="opacity:1;fill:#000000;fill-opacity:1;fill-rule:evenodd;stroke:#000000;stroke-width:6;stroke-linecap:round;stroke-linejoin:round;stroke-miterlimit:4;stroke-dasharray:none;stroke-opacity:1"
       id="path3227"
       sodipodi:cx="-48"
       sodipodi:cy="22"
       sodipodi:rx="0"
       sodipodi:ry="10"
       d="M -48,22 A 0,10 0 1 1 -48,22 A 0,10 0 1 1 -48,22 z"
       transform="matrix(0.536217,0.8440802,-0.8440802,0.536217,-45.764576,14.703215)" />
    <path
       transform="matrix(0.536217,0.8440802,-0.8440802,0.536217,-3.6918196,80.719076)"
       d="M -48,22 A 0,10 0 1 1 -48,22 A 0,10 0 1 1 -48,22 z"
       sodipodi:ry="10"
       sodipodi:rx="0"
       sodipodi:cy="22"
       sodipodi:cx="-48"
       id="path3229"
       style="opacity:1;fill:#000000;fill-opacity:1;fill-rule:evenodd;stroke:#000000;stroke-width:6;stroke-linecap:round;stroke-linejoin:round;stroke-miterlimit:4;stroke-dasharray:none;stroke-opacity:1"
       sodipodi:type="arc" />
    <path
       transform="matrix(0.536217,0.8440802,-0.8440802,0.536217,0.3081804,80.719076)"
       d="M -48,22 A 0,10 0 1 1 -48,22 A 0,10 0 1 1 -48,22 z"
       sodipodi:ry="10"
       sodipodi:rx="0"
       sodipodi:cy="22"
       sodipodi:cx="-48"
       id="path3231"
       style="opacity:1;fill:#000000;fill-opacity:1;fill-rule:evenodd;stroke:#000000;stroke-width:6;stroke-linecap:round;stroke-linejoin:round;stroke-miterlimit:4;stroke-dasharray:none;stroke-opacity:1"
       sodipodi:type="arc" />
    <path
       transform="matrix(0.536217,0.8440802,-0.8440802,0.536217,28.30818,84.719076)"
       d="M -48,22 A 0,10 0 1 1 -48,22 A 0,10 0 1 1 -48,22 z"
       sodipodi:ry="10"
       sodipodi:rx="0"
       sodipodi:cy="22"
       sodipodi:cx="-48"
       id="path3233"
       style="opacity:1;fill:#000000;fill-opacity:1;fill-rule:evenodd;stroke:#000000;stroke-width:6;stroke-linecap:round;stroke-linejoin:round;stroke-miterlimit:4;stroke-dasharray:none;stroke-opacity:1"
       sodipodi:type="arc" />
    <path
       transform="matrix(0.536217,0.8440802,-0.8440802,0.536217,0.3081804,80.719076)"
       d="M -48,22 A 0,10 0 1 1 -48,22 A 0,10 0 1 1 -48,22 z"
       sodipodi:ry="10"
       sodipodi:rx="0"
       sodipodi:cy="22"
       sodipodi:cx="-48"
       id="path3235"
       style="opacity:1;fill:#000000;fill-opacity:1;fill-rule:evenodd;stroke:#000000;stroke-width:6;stroke-linecap:round;stroke-linejoin:round;stroke-miterlimit:4;stroke-dasharray:none;stroke-opacity:1"
       sodipodi:type="arc" />
    <path
       sodipodi:type="arc"
       style="opacity:1;fill:#000000;fill-opacity:1;fill-rule:evenodd;stroke:#000000;stroke-width:6;stroke-linecap:round;stroke-linejoin:round;stroke-miterlimit:4;stroke-dasharray:none;stroke-opacity:1"
       id="path3237"
       sodipodi:cx="-48"
       sodipodi:cy="22"
       sodipodi:rx="0"
       sodipodi:ry="10"
       d="M -48,22 A 0,10 0 1 1 -48,22 A 0,10 0 1 1 -48,22 z"
       transform="matrix(0.536217,0.8440802,-0.8440802,0.536217,-33.713221,24.928607)" />
    <g
       id="g3256"
       transform="translate(32.932266,1.7543665)">
      <g
         id="g3244"
         style="fill:#ffffff;fill-opacity:1;stroke:#000000;stroke-opacity:1;filter:url(#filter3252)"
         transform="matrix(0.9985334,5.4138262e-2,-5.4138262e-2,0.9985334,20.013256,11.679879)">
        <path
           transform="matrix(0.8598559,0,0,1.1066404,-9.3634584,-17.33202)"
           d="M 8,50 A 16,26 0 1 1 -24,50 A 16,26 0 1 1 8,50 z"
           sodipodi:ry="26"
           sodipodi:rx="16"
           sodipodi:cy="50"
           sodipodi:cx="-8"
           id="path3246"
           style="opacity:1;fill:#ffffff;fill-opacity:1;fill-rule:evenodd;stroke:#000000;stroke-width:6;stroke-linecap:round;stroke-linejoin:round;stroke-miterlimit:4;stroke-dasharray:none;stroke-opacity:1"
           sodipodi:type="arc" />
        <rect
           y="68"
           x="-24"
           height="24"
           width="16"
           id="rect3248"
           style="opacity:1;fill:#ffffff;fill-opacity:1;fill-rule:evenodd;stroke:#000000;stroke-width:6;stroke-linecap:round;stroke-linejoin:round;stroke-miterlimit:4;stroke-dasharray:none;stroke-opacity:1" />
        <path
           transform="translate(2,-2)"
           d="M -12,94 A 6,2 0 1 1 -24,94 A 6,2 0 1 1 -12,94 z"
           sodipodi:ry="2"
           sodipodi:rx="6"
           sodipodi:cy="94"
           sodipodi:cx="-18"
           id="path3250"
           style="opacity:1;fill:#ffffff;fill-opacity:1;fill-rule:evenodd;stroke:#000000;stroke-width:6;stroke-linecap:round;stroke-linejoin:round;stroke-miterlimit:4;stroke-dasharray:none;stroke-opacity:1"
           sodipodi:type="arc" />
      </g>
      <g
         transform="matrix(0.9985334,5.4138262e-2,-5.4138262e-2,0.9985334,20.013256,11.679879)"
         style="fill:#ffffff;fill-opacity:1;stroke:#ffffff;stroke-opacity:1"
         id="g3202">
        <path
           sodipodi:type="arc"
           style="opacity:1;fill:#ffffff;fill-opacity:1;fill-rule:evenodd;stroke:#ffffff;stroke-width:6;stroke-linecap:round;stroke-linejoin:round;stroke-miterlimit:4;stroke-dasharray:none;stroke-opacity:1"
           id="path3194"
           sodipodi:cx="-8"
           sodipodi:cy="50"
           sodipodi:rx="16"
           sodipodi:ry="26"
           d="M 8,50 A 16,26 0 1 1 -24,50 A 16,26 0 1 1 8,50 z"
           transform="matrix(0.8598559,0,0,1.1066404,-9.3634584,-17.33202)" />
        <rect
           style="opacity:1;fill:#ffffff;fill-opacity:1;fill-rule:evenodd;stroke:#ffffff;stroke-width:6;stroke-linecap:round;stroke-linejoin:round;stroke-miterlimit:4;stroke-dasharray:none;stroke-opacity:1"
           id="rect3196"
           width="16"
           height="24"
           x="-24"
           y="68" />
        <path
           sodipodi:type="arc"
           style="opacity:1;fill:#ffffff;fill-opacity:1;fill-rule:evenodd;stroke:#ffffff;stroke-width:6;stroke-linecap:round;stroke-linejoin:round;stroke-miterlimit:4;stroke-dasharray:none;stroke-opacity:1"
           id="path3200"
           sodipodi:cx="-18"
           sodipodi:cy="94"
           sodipodi:rx="6"
           sodipodi:ry="2"
           d="M -12,94 A 6,2 0 1 1 -24,94 A 6,2 0 1 1 -12,94 z"
           transform="translate(2,-2)" />
      </g>
    </g>
    <g
       id="g2434"
       transform="matrix(0.8814434,6.2269662e-2,-6.2269662e-2,0.8814434,89.310084,8.7774928)">
      <g
         id="g2436"
         style="fill:#ffffff;fill-opacity:1;stroke:#000000;stroke-opacity:1;filter:url(#filter3252)"
         transform="matrix(0.9985334,5.4138262e-2,-5.4138262e-2,0.9985334,20.013256,11.679879)">
        <path
           transform="matrix(0.8598559,0,0,1.1066404,-9.3634584,-17.33202)"
           d="M 8,50 A 16,26 0 1 1 -24,50 A 16,26 0 1 1 8,50 z"
           sodipodi:ry="26"
           sodipodi:rx="16"
           sodipodi:cy="50"
           sodipodi:cx="-8"
           id="path2438"
           style="opacity:1;fill:#ffffff;fill-opacity:1;fill-rule:evenodd;stroke:#000000;stroke-width:6;stroke-linecap:round;stroke-linejoin:round;stroke-miterlimit:4;stroke-dasharray:none;stroke-opacity:1"
           sodipodi:type="arc" />
        <rect
           y="68"
           x="-24"
           height="24"
           width="16"
           id="rect2440"
           style="opacity:1;fill:#ffffff;fill-opacity:1;fill-rule:evenodd;stroke:#000000;stroke-width:6;stroke-linecap:round;stroke-linejoin:round;stroke-miterlimit:4;stroke-dasharray:none;stroke-opacity:1" />
        <path
           transform="translate(2,-2)"
           d="M -12,94 A 6,2 0 1 1 -24,94 A 6,2 0 1 1 -12,94 z"
           sodipodi:ry="2"
           sodipodi:rx="6"
           sodipodi:cy="94"
           sodipodi:cx="-18"
           id="path2442"
           style="opacity:1;fill:#ffffff;fill-opacity:1;fill-rule:evenodd;stroke:#000000;stroke-width:6;stroke-linecap:round;stroke-linejoin:round;stroke-miterlimit:4;stroke-dasharray:none;stroke-opacity:1"
           sodipodi:type="arc" />
      </g>
      <g
         transform="matrix(0.9985334,5.4138262e-2,-5.4138262e-2,0.9985334,20.013256,11.679879)"
         style="fill:#ffffff;fill-opacity:1;stroke:#ffffff;stroke-opacity:1"
         id="g2444">
        <path
           sodipodi:type="arc"
           style="opacity:1;fill:#ffffff;fill-opacity:1;fill-rule:evenodd;stroke:#ffffff;stroke-width:6;stroke-linecap:round;stroke-linejoin:round;stroke-miterlimit:4;stroke-dasharray:none;stroke-opacity:1"
           id="path2446"
           sodipodi:cx="-8"
           sodipodi:cy="50"
           sodipodi:rx="16"
           sodipodi:ry="26"
           d="M 8,50 A 16,26 0 1 1 -24,50 A 16,26 0 1 1 8,50 z"
           transform="matrix(0.8598559,0,0,1.1066404,-9.3634584,-17.33202)" />
        <rect
           style="opacity:1;fill:#ffffff;fill-opacity:1;fill-rule:evenodd;stroke:#ffffff;stroke-width:6;stroke-linecap:round;stroke-linejoin:round;stroke-miterlimit:4;stroke-dasharray:none;stroke-opacity:1"
           id="rect2448"
           width="16"
           height="24"
           x="-24"
           y="68" />
        <path
           sodipodi:type="arc"
           style="opacity:1;fill:#ffffff;fill-opacity:1;fill-rule:evenodd;stroke:#ffffff;stroke-width:6;stroke-linecap:round;stroke-linejoin:round;stroke-miterlimit:4;stroke-dasharray:none;stroke-opacity:1"
           id="path2450"
           sodipodi:cx="-18"
           sodipodi:cy="94"
           sodipodi:rx="6"
           sodipodi:ry="2"
           d="M -12,94 A 6,2 0 1 1 -24,94 A 6,2 0 1 1 -12,94 z"
           transform="translate(2,-2)" />
      </g>
    </g>
    <g
       transform="matrix(0.8500979,-0.1615343,0.1615343,0.8500979,49.355582,13.482728)"
       id="g2416">
      <g
         transform="matrix(0.9985334,5.4138262e-2,-5.4138262e-2,0.9985334,20.013256,11.679879)"
         style="fill:#ffffff;fill-opacity:1;stroke:#000000;stroke-opacity:1;filter:url(#filter3252)"
         id="g2418">
        <path
           sodipodi:type="arc"
           style="opacity:1;fill:#ffffff;fill-opacity:1;fill-rule:evenodd;stroke:#000000;stroke-width:6;stroke-linecap:round;stroke-linejoin:round;stroke-miterlimit:4;stroke-dasharray:none;stroke-opacity:1"
           id="path2420"
           sodipodi:cx="-8"
           sodipodi:cy="50"
           sodipodi:rx="16"
           sodipodi:ry="26"
           d="M 8,50 A 16,26 0 1 1 -24,50 A 16,26 0 1 1 8,50 z"
           transform="matrix(0.8598559,0,0,1.1066404,-9.3634584,-17.33202)" />
        <rect
           style="opacity:1;fill:#ffffff;fill-opacity:1;fill-rule:evenodd;stroke:#000000;stroke-width:6;stroke-linecap:round;stroke-linejoin:round;stroke-miterlimit:4;stroke-dasharray:none;stroke-opacity:1"
           id="rect2422"
           width="16"
           height="24"
           x="-24"
           y="68" />
        <path
           sodipodi:type="arc"
           style="opacity:1;fill:#ffffff;fill-opacity:1;fill-rule:evenodd;stroke:#000000;stroke-width:6;stroke-linecap:round;stroke-linejoin:round;stroke-miterlimit:4;stroke-dasharray:none;stroke-opacity:1"
           id="path2424"
           sodipodi:cx="-18"
           sodipodi:cy="94"
           sodipodi:rx="6"
           sodipodi:ry="2"
           d="M -12,94 A 6,2 0 1 1 -24,94 A 6,2 0 1 1 -12,94 z"
           transform="translate(2,-2)" />
      </g>
      <g
         id="g2426"
         style="fill:#ffffff;fill-opacity:1;stroke:#ffffff;stroke-opacity:1"
         transform="matrix(0.9985334,5.4138262e-2,-5.4138262e-2,0.9985334,20.013256,11.679879)">
        <path
           transform="matrix(0.8598559,0,0,1.1066404,-9.3634584,-17.33202)"
           d="M 8,50 A 16,26 0 1 1 -24,50 A 16,26 0 1 1 8,50 z"
           sodipodi:ry="26"
           sodipodi:rx="16"
           sodipodi:cy="50"
           sodipodi:cx="-8"
           id="path2428"
           style="opacity:1;fill:#ffffff;fill-opacity:1;fill-rule:evenodd;stroke:#ffffff;stroke-width:6;stroke-linecap:round;stroke-linejoin:round;stroke-miterlimit:4;stroke-dasharray:none;stroke-opacity:1"
           sodipodi:type="arc" />
        <rect
           y="68"
           x="-24"
           height="24"
           width="16"
           id="rect2430"
           style="opacity:1;fill:#ffffff;fill-opacity:1;fill-rule:evenodd;stroke:#ffffff;stroke-width:6;stroke-linecap:round;stroke-linejoin:round;stroke-miterlimit:4;stroke-dasharray:none;stroke-opacity:1" />
        <path
           transform="translate(2,-2)"
           d="M -12,94 A 6,2 0 1 1 -24,94 A 6,2 0 1 1 -12,94 z"
           sodipodi:ry="2"
           sodipodi:rx="6"
           sodipodi:cy="94"
           sodipodi:cx="-18"
           id="path2432"
           style="opacity:1;fill:#ffffff;fill-opacity:1;fill-rule:evenodd;stroke:#ffffff;stroke-width:6;stroke-linecap:round;stroke-linejoin:round;stroke-miterlimit:4;stroke-dasharray:none;stroke-opacity:1"
           sodipodi:type="arc" />
      </g>
    </g>
  </g>
</svg>
